<mxfile host="65bd71144e">
    <diagram id="jvWlU-XOdhMpFL12za_e" name="ページ1">
        <mxGraphModel dx="893" dy="568" grid="1" gridSize="10" guides="1" tooltips="1" connect="1" arrows="1" fold="1" page="1" pageScale="1" pageWidth="827" pageHeight="1169" math="0" shadow="0">
            <root>
                <mxCell id="0"/>
                <mxCell id="1" parent="0"/>
                <mxCell id="2" value="Twitterクローン" style="rounded=0;whiteSpace=wrap;html=1;verticalAlign=top;fillColor=none;" vertex="1" parent="1">
                    <mxGeometry x="200" y="110" width="430" height="500" as="geometry"/>
                </mxCell>
                <mxCell id="3" value="ユーザー" style="shape=umlActor;verticalLabelPosition=bottom;verticalAlign=top;html=1;outlineConnect=0;" vertex="1" parent="1">
                    <mxGeometry x="90" y="200" width="30" height="60" as="geometry"/>
                </mxCell>
                <mxCell id="4" value="会員登録&lt;br&gt;ログイン" style="ellipse;whiteSpace=wrap;html=1;fillColor=none;" vertex="1" parent="1">
                    <mxGeometry x="240" y="150" width="120" height="80" as="geometry"/>
                </mxCell>
                <mxCell id="5" value="ツイート(閲覧・投稿)" style="ellipse;whiteSpace=wrap;html=1;fillColor=none;" vertex="1" parent="1">
                    <mxGeometry x="250" y="250" width="120" height="80" as="geometry"/>
                </mxCell>
                <mxCell id="6" value="" style="endArrow=none;html=1;entryX=0;entryY=0.5;entryDx=0;entryDy=0;" edge="1" parent="1" target="4">
                    <mxGeometry width="50" height="50" relative="1" as="geometry">
                        <mxPoint x="250" y="280" as="sourcePoint"/>
                        <mxPoint x="440" y="270" as="targetPoint"/>
                        <Array as="points">
                            <mxPoint x="250" y="280"/>
                            <mxPoint x="130" y="220"/>
                        </Array>
                    </mxGeometry>
                </mxCell>
                <mxCell id="8" value="プロフィール" style="ellipse;whiteSpace=wrap;html=1;fillColor=none;" vertex="1" parent="1">
                    <mxGeometry x="250" y="350" width="120" height="80" as="geometry"/>
                </mxCell>
                <mxCell id="9" value="ブックマーク" style="ellipse;whiteSpace=wrap;html=1;fillColor=none;" vertex="1" parent="1">
                    <mxGeometry x="250" y="450" width="120" height="80" as="geometry"/>
                </mxCell>
                <mxCell id="10" value="" style="endArrow=none;html=1;strokeWidth=2;" edge="1" parent="1">
                    <mxGeometry width="50" height="50" relative="1" as="geometry">
                        <mxPoint x="260" y="370" as="sourcePoint"/>
                        <mxPoint x="140" y="220" as="targetPoint"/>
                        <Array as="points">
                            <mxPoint x="260" y="370"/>
                        </Array>
                    </mxGeometry>
                </mxCell>
                <mxCell id="13" value="" style="endArrow=none;html=1;exitX=0.017;exitY=0.243;exitDx=0;exitDy=0;exitPerimeter=0;" edge="1" parent="1" source="9">
                    <mxGeometry width="50" height="50" relative="1" as="geometry">
                        <mxPoint x="390" y="320" as="sourcePoint"/>
                        <mxPoint x="140" y="220" as="targetPoint"/>
                    </mxGeometry>
                </mxCell>
                <mxCell id="14" value="自分の投稿&lt;br&gt;Favorite&lt;br&gt;Comment&lt;br&gt;Retweet" style="rounded=0;whiteSpace=wrap;html=1;fillColor=#ffe6cc;strokeColor=#d79b00;" vertex="1" parent="1">
                    <mxGeometry x="380" y="350" width="120" height="80" as="geometry"/>
                </mxCell>
                <mxCell id="15" value="" style="endArrow=none;html=1;" edge="1" parent="1">
                    <mxGeometry width="50" height="50" relative="1" as="geometry">
                        <mxPoint x="370" y="390" as="sourcePoint"/>
                        <mxPoint x="380" y="390" as="targetPoint"/>
                    </mxGeometry>
                </mxCell>
                <mxCell id="16" value="Comment&lt;br&gt;Retweet&lt;br&gt;Favorite&lt;br&gt;Bookmark" style="rounded=0;whiteSpace=wrap;html=1;fillColor=#ffe6cc;strokeColor=#d79b00;" vertex="1" parent="1">
                    <mxGeometry x="380" y="250" width="120" height="80" as="geometry"/>
                </mxCell>
                <mxCell id="17" value="" style="endArrow=none;html=1;exitX=1;exitY=0.5;exitDx=0;exitDy=0;" edge="1" parent="1" source="5">
                    <mxGeometry width="50" height="50" relative="1" as="geometry">
                        <mxPoint x="380" y="400" as="sourcePoint"/>
                        <mxPoint x="380" y="290" as="targetPoint"/>
                        <Array as="points">
                            <mxPoint x="380" y="290"/>
                        </Array>
                    </mxGeometry>
                </mxCell>
                <mxCell id="18" value="DM" style="ellipse;whiteSpace=wrap;html=1;fillColor=none;" vertex="1" parent="1">
                    <mxGeometry x="250" y="540" width="120" height="80" as="geometry"/>
                </mxCell>
                <mxCell id="19" value="" style="endArrow=none;html=1;entryX=0.022;entryY=0.313;entryDx=0;entryDy=0;entryPerimeter=0;" edge="1" parent="1" target="18">
                    <mxGeometry width="50" height="50" relative="1" as="geometry">
                        <mxPoint x="140" y="220" as="sourcePoint"/>
                        <mxPoint x="430" y="290" as="targetPoint"/>
                        <Array as="points">
                            <mxPoint x="190" y="390"/>
                        </Array>
                    </mxGeometry>
                </mxCell>
                <mxCell id="20" value="1対1" style="ellipse;whiteSpace=wrap;html=1;fillColor=none;" vertex="1" parent="1">
                    <mxGeometry x="400" y="540" width="120" height="80" as="geometry"/>
                </mxCell>
                <mxCell id="21" value="" style="endArrow=none;html=1;entryX=0;entryY=0.5;entryDx=0;entryDy=0;" edge="1" parent="1" target="20">
                    <mxGeometry width="50" height="50" relative="1" as="geometry">
                        <mxPoint x="370" y="580" as="sourcePoint"/>
                        <mxPoint x="420" y="530" as="targetPoint"/>
                    </mxGeometry>
                </mxCell>
            </root>
        </mxGraphModel>
    </diagram>
</mxfile>